<mxfile host="65bd71144e">
    <diagram id="C5RBs43oDa-KdzZeNtuy" name="Page-1">
        <mxGraphModel dx="2480" dy="2042" grid="1" gridSize="10" guides="1" tooltips="1" connect="1" arrows="1" fold="1" page="1" pageScale="1" pageWidth="827" pageHeight="1169" math="0" shadow="0">
            <root>
                <mxCell id="WIyWlLk6GJQsqaUBKTNV-0"/>
                <mxCell id="WIyWlLk6GJQsqaUBKTNV-1" parent="WIyWlLk6GJQsqaUBKTNV-0"/>
                <mxCell id="55Z-7aIsJhUNVljRgmjO-0" value="ProtectYourIdentity.ts" style="swimlane;fontStyle=1;align=center;verticalAlign=top;childLayout=stackLayout;horizontal=1;startSize=26;horizontalStack=0;resizeParent=1;resizeParentMax=0;resizeLast=0;collapsible=1;marginBottom=0;" parent="WIyWlLk6GJQsqaUBKTNV-1" vertex="1">
                    <mxGeometry x="120" y="40" width="260" height="170" as="geometry"/>
                </mxCell>
                <mxCell id="55Z-7aIsJhUNVljRgmjO-1" value="- Canvas: HTMLCanvasElement&#10;- keyListener: KeyListener&#10;- mouseListener: mouseListener&#10;- currentScene: Scene" style="text;strokeColor=none;fillColor=none;align=left;verticalAlign=top;spacingLeft=4;spacingRight=4;overflow=hidden;rotatable=0;points=[[0,0.5],[1,0.5]];portConstraint=eastwest;" parent="55Z-7aIsJhUNVljRgmjO-0" vertex="1">
                    <mxGeometry y="26" width="260" height="64" as="geometry"/>
                </mxCell>
                <mxCell id="55Z-7aIsJhUNVljRgmjO-2" value="" style="line;strokeWidth=1;fillColor=none;align=left;verticalAlign=middle;spacingTop=-1;spacingLeft=3;spacingRight=3;rotatable=0;labelPosition=right;points=[];portConstraint=eastwest;strokeColor=inherit;" parent="55Z-7aIsJhUNVljRgmjO-0" vertex="1">
                    <mxGeometry y="90" width="260" height="8" as="geometry"/>
                </mxCell>
                <mxCell id="55Z-7aIsJhUNVljRgmjO-3" value="+ constructor(canvas: HTMLCanvasElement)&#10;+ processInput(): void&#10;+ update(elapsed: number): void&#10;+ render(): void" style="text;strokeColor=none;fillColor=none;align=left;verticalAlign=top;spacingLeft=4;spacingRight=4;overflow=hidden;rotatable=0;points=[[0,0.5],[1,0.5]];portConstraint=eastwest;" parent="55Z-7aIsJhUNVljRgmjO-0" vertex="1">
                    <mxGeometry y="98" width="260" height="72" as="geometry"/>
                </mxCell>
                <mxCell id="55Z-7aIsJhUNVljRgmjO-8" value="&lt;&lt;&lt;Abstract&gt;&gt;&gt; Drawable.ts" style="swimlane;fontStyle=1;align=center;verticalAlign=top;childLayout=stackLayout;horizontal=1;startSize=26;horizontalStack=0;resizeParent=1;resizeParentMax=0;resizeLast=0;collapsible=1;marginBottom=0;" parent="WIyWlLk6GJQsqaUBKTNV-1" vertex="1">
                    <mxGeometry x="1520" y="204" width="350" height="188" as="geometry"/>
                </mxCell>
                <mxCell id="55Z-7aIsJhUNVljRgmjO-9" value="# image: HTMLImageElement&#10;# posX: number&#10;# posY: number" style="text;strokeColor=default;fillColor=none;align=left;verticalAlign=top;spacingLeft=4;spacingRight=4;overflow=hidden;rotatable=0;points=[[0,0.5],[1,0.5]];portConstraint=eastwest;" parent="55Z-7aIsJhUNVljRgmjO-8" vertex="1">
                    <mxGeometry y="26" width="350" height="54" as="geometry"/>
                </mxCell>
                <mxCell id="55Z-7aIsJhUNVljRgmjO-11" value="+ getPosX(): number&#10;+ getPosY(): number&#10;+ getWidth(): number&#10;+ getHeight(): number&#10;+ render(canvas: HTMLCanvasElement): void&#10;+ &lt;Abstract&gt; update(elapsed: Number, speed: Number): void" style="text;strokeColor=none;fillColor=none;align=left;verticalAlign=top;spacingLeft=4;spacingRight=4;overflow=hidden;rotatable=0;points=[[0,0.5],[1,0.5]];portConstraint=eastwest;" parent="55Z-7aIsJhUNVljRgmjO-8" vertex="1">
                    <mxGeometry y="80" width="350" height="100" as="geometry"/>
                </mxCell>
                <mxCell id="55Z-7aIsJhUNVljRgmjO-10" value="" style="line;strokeWidth=1;fillColor=none;align=left;verticalAlign=middle;spacingTop=-1;spacingLeft=3;spacingRight=3;rotatable=0;labelPosition=right;points=[];portConstraint=eastwest;strokeColor=inherit;" parent="55Z-7aIsJhUNVljRgmjO-8" vertex="1">
                    <mxGeometry y="180" width="350" height="8" as="geometry"/>
                </mxCell>
                <mxCell id="55Z-7aIsJhUNVljRgmjO-12" value="Player.ts" style="swimlane;fontStyle=1;align=center;verticalAlign=top;childLayout=stackLayout;horizontal=1;startSize=26;horizontalStack=0;resizeParent=1;resizeParentMax=0;resizeLast=0;collapsible=1;marginBottom=0;" parent="WIyWlLk6GJQsqaUBKTNV-1" vertex="1">
                    <mxGeometry x="1080" y="90" width="370" height="240" as="geometry">
                        <mxRectangle x="350" y="460" width="90" height="30" as="alternateBounds"/>
                    </mxGeometry>
                </mxCell>
                <mxCell id="55Z-7aIsJhUNVljRgmjO-14" value="" style="line;strokeWidth=1;fillColor=none;align=left;verticalAlign=middle;spacingTop=-1;spacingLeft=3;spacingRight=3;rotatable=0;labelPosition=right;points=[];portConstraint=eastwest;strokeColor=inherit;" parent="55Z-7aIsJhUNVljRgmjO-12" vertex="1">
                    <mxGeometry y="26" width="370" height="8" as="geometry"/>
                </mxCell>
                <mxCell id="55Z-7aIsJhUNVljRgmjO-13" value="- images: HTMLImageElement[]&#10;- posXinitial: number&#10;- posYinitial: number&#10;- acceleration: number&#10;- timeToGoBackToTheGround: number" style="text;strokeColor=default;fillColor=none;align=left;verticalAlign=top;spacingLeft=4;spacingRight=4;overflow=hidden;rotatable=0;points=[[0,0.5],[1,0.5]];portConstraint=eastwest;" parent="55Z-7aIsJhUNVljRgmjO-12" vertex="1">
                    <mxGeometry y="34" width="370" height="86" as="geometry"/>
                </mxCell>
                <mxCell id="55Z-7aIsJhUNVljRgmjO-15" value="+ constructor(maxX: number, maxY: number)&#10;+ move(elapsed: number, code: number, moveTo: number): boolean&#10;+ jump(): void&#10;+ slide(): void&#10;+ collidesWithActionItem(actionItem: ActionItem): boolean&#10;+ update(elapsed: Number): void&#10;+ getPosXinitial(): number&#10;+ getPosYinitial(): number" style="text;strokeColor=none;fillColor=none;align=left;verticalAlign=top;spacingLeft=4;spacingRight=4;overflow=hidden;rotatable=0;points=[[0,0.5],[1,0.5]];portConstraint=eastwest;" parent="55Z-7aIsJhUNVljRgmjO-12" vertex="1">
                    <mxGeometry y="120" width="370" height="120" as="geometry"/>
                </mxCell>
                <mxCell id="55Z-7aIsJhUNVljRgmjO-16" value="BackgroundPath.ts" style="swimlane;fontStyle=1;align=center;verticalAlign=top;childLayout=stackLayout;horizontal=1;startSize=26;horizontalStack=0;resizeParent=1;resizeParentMax=0;resizeLast=0;collapsible=1;marginBottom=0;strokeColor=default;" parent="WIyWlLk6GJQsqaUBKTNV-1" vertex="1">
                    <mxGeometry x="1320" width="320" height="80" as="geometry"/>
                </mxCell>
                <mxCell id="55Z-7aIsJhUNVljRgmjO-18" value="" style="line;strokeWidth=1;fillColor=none;align=left;verticalAlign=middle;spacingTop=-1;spacingLeft=3;spacingRight=3;rotatable=0;labelPosition=right;points=[];portConstraint=eastwest;strokeColor=inherit;" parent="55Z-7aIsJhUNVljRgmjO-16" vertex="1">
                    <mxGeometry y="26" width="320" height="8" as="geometry"/>
                </mxCell>
                <mxCell id="55Z-7aIsJhUNVljRgmjO-19" value="+ constructor(posX: number, posY: number, backgroundNumber: number)&#10;+ update(elapsed: Number, speed: number): void" style="text;strokeColor=none;fillColor=none;align=left;verticalAlign=top;spacingLeft=4;spacingRight=4;overflow=hidden;rotatable=0;points=[[0,0.5],[1,0.5]];portConstraint=eastwest;" parent="55Z-7aIsJhUNVljRgmjO-16" vertex="1">
                    <mxGeometry y="34" width="320" height="46" as="geometry"/>
                </mxCell>
                <mxCell id="55Z-7aIsJhUNVljRgmjO-20" value="ActionItem.ts" style="swimlane;fontStyle=1;align=center;verticalAlign=top;childLayout=stackLayout;horizontal=1;startSize=26;horizontalStack=0;resizeParent=1;resizeParentMax=0;resizeLast=0;collapsible=1;marginBottom=0;strokeColor=default;" parent="WIyWlLk6GJQsqaUBKTNV-1" vertex="1">
                    <mxGeometry x="1110" y="345" width="280" height="96" as="geometry"/>
                </mxCell>
                <mxCell id="55Z-7aIsJhUNVljRgmjO-22" value="" style="line;strokeWidth=1;fillColor=none;align=left;verticalAlign=middle;spacingTop=-1;spacingLeft=3;spacingRight=3;rotatable=0;labelPosition=right;points=[];portConstraint=eastwest;strokeColor=inherit;" parent="55Z-7aIsJhUNVljRgmjO-20" vertex="1">
                    <mxGeometry y="26" width="280" height="8" as="geometry"/>
                </mxCell>
                <mxCell id="55Z-7aIsJhUNVljRgmjO-23" value="+ constructor(startX: number, startY: number)&#10;+ update(elapsed: number, speed: number): void" style="text;strokeColor=none;fillColor=none;align=left;verticalAlign=top;spacingLeft=4;spacingRight=4;overflow=hidden;rotatable=0;points=[[0,0.5],[1,0.5]];portConstraint=eastwest;" parent="55Z-7aIsJhUNVljRgmjO-20" vertex="1">
                    <mxGeometry y="34" width="280" height="62" as="geometry"/>
                </mxCell>
                <mxCell id="55Z-7aIsJhUNVljRgmjO-24" value="Mail.ts" style="swimlane;fontStyle=1;align=center;verticalAlign=top;childLayout=stackLayout;horizontal=1;startSize=26;horizontalStack=0;resizeParent=1;resizeParentMax=0;resizeLast=0;collapsible=1;marginBottom=0;strokeColor=default;" parent="WIyWlLk6GJQsqaUBKTNV-1" vertex="1">
                    <mxGeometry x="1110" y="565" width="260" height="60" as="geometry"/>
                </mxCell>
                <mxCell id="55Z-7aIsJhUNVljRgmjO-26" value="" style="line;strokeWidth=1;fillColor=none;align=left;verticalAlign=middle;spacingTop=-1;spacingLeft=3;spacingRight=3;rotatable=0;labelPosition=right;points=[];portConstraint=eastwest;strokeColor=inherit;" parent="55Z-7aIsJhUNVljRgmjO-24" vertex="1">
                    <mxGeometry y="26" width="260" height="8" as="geometry"/>
                </mxCell>
                <mxCell id="55Z-7aIsJhUNVljRgmjO-27" value="+ constructor(startX: number, startY: number)" style="text;strokeColor=none;fillColor=none;align=left;verticalAlign=top;spacingLeft=4;spacingRight=4;overflow=hidden;rotatable=0;points=[[0,0.5],[1,0.5]];portConstraint=eastwest;" parent="55Z-7aIsJhUNVljRgmjO-24" vertex="1">
                    <mxGeometry y="34" width="260" height="26" as="geometry"/>
                </mxCell>
                <mxCell id="55Z-7aIsJhUNVljRgmjO-28" value="Message.ts" style="swimlane;fontStyle=1;align=center;verticalAlign=top;childLayout=stackLayout;horizontal=1;startSize=26;horizontalStack=0;resizeParent=1;resizeParentMax=0;resizeLast=0;collapsible=1;marginBottom=0;strokeColor=default;" parent="WIyWlLk6GJQsqaUBKTNV-1" vertex="1">
                    <mxGeometry x="1110" y="635" width="260" height="60" as="geometry"/>
                </mxCell>
                <mxCell id="55Z-7aIsJhUNVljRgmjO-29" value="" style="line;strokeWidth=1;fillColor=none;align=left;verticalAlign=middle;spacingTop=-1;spacingLeft=3;spacingRight=3;rotatable=0;labelPosition=right;points=[];portConstraint=eastwest;strokeColor=inherit;" parent="55Z-7aIsJhUNVljRgmjO-28" vertex="1">
                    <mxGeometry y="26" width="260" height="8" as="geometry"/>
                </mxCell>
                <mxCell id="55Z-7aIsJhUNVljRgmjO-30" value="+ constructor(startX: number, startY: number)" style="text;strokeColor=none;fillColor=none;align=left;verticalAlign=top;spacingLeft=4;spacingRight=4;overflow=hidden;rotatable=0;points=[[0,0.5],[1,0.5]];portConstraint=eastwest;" parent="55Z-7aIsJhUNVljRgmjO-28" vertex="1">
                    <mxGeometry y="34" width="260" height="26" as="geometry"/>
                </mxCell>
                <mxCell id="55Z-7aIsJhUNVljRgmjO-34" value="Thief.ts" style="swimlane;fontStyle=1;align=center;verticalAlign=top;childLayout=stackLayout;horizontal=1;startSize=26;horizontalStack=0;resizeParent=1;resizeParentMax=0;resizeLast=0;collapsible=1;marginBottom=0;strokeColor=default;" parent="WIyWlLk6GJQsqaUBKTNV-1" vertex="1">
                    <mxGeometry x="1110" y="710" width="260" height="60" as="geometry"/>
                </mxCell>
                <mxCell id="55Z-7aIsJhUNVljRgmjO-35" value="" style="line;strokeWidth=1;fillColor=none;align=left;verticalAlign=middle;spacingTop=-1;spacingLeft=3;spacingRight=3;rotatable=0;labelPosition=right;points=[];portConstraint=eastwest;strokeColor=inherit;" parent="55Z-7aIsJhUNVljRgmjO-34" vertex="1">
                    <mxGeometry y="26" width="260" height="8" as="geometry"/>
                </mxCell>
                <mxCell id="55Z-7aIsJhUNVljRgmjO-36" value="+ constructor(startX: number, startY: number)" style="text;strokeColor=none;fillColor=none;align=left;verticalAlign=top;spacingLeft=4;spacingRight=4;overflow=hidden;rotatable=0;points=[[0,0.5],[1,0.5]];portConstraint=eastwest;" parent="55Z-7aIsJhUNVljRgmjO-34" vertex="1">
                    <mxGeometry y="34" width="260" height="26" as="geometry"/>
                </mxCell>
                <mxCell id="55Z-7aIsJhUNVljRgmjO-37" value="Hole.ts" style="swimlane;fontStyle=1;align=center;verticalAlign=top;childLayout=stackLayout;horizontal=1;startSize=26;horizontalStack=0;resizeParent=1;resizeParentMax=0;resizeLast=0;collapsible=1;marginBottom=0;strokeColor=default;" parent="WIyWlLk6GJQsqaUBKTNV-1" vertex="1">
                    <mxGeometry x="1110" y="780" width="260" height="60" as="geometry"/>
                </mxCell>
                <mxCell id="55Z-7aIsJhUNVljRgmjO-38" value="" style="line;strokeWidth=1;fillColor=none;align=left;verticalAlign=middle;spacingTop=-1;spacingLeft=3;spacingRight=3;rotatable=0;labelPosition=right;points=[];portConstraint=eastwest;strokeColor=inherit;" parent="55Z-7aIsJhUNVljRgmjO-37" vertex="1">
                    <mxGeometry y="26" width="260" height="8" as="geometry"/>
                </mxCell>
                <mxCell id="55Z-7aIsJhUNVljRgmjO-39" value="+ constructor(startX: number, startY: number)" style="text;strokeColor=none;fillColor=none;align=left;verticalAlign=top;spacingLeft=4;spacingRight=4;overflow=hidden;rotatable=0;points=[[0,0.5],[1,0.5]];portConstraint=eastwest;" parent="55Z-7aIsJhUNVljRgmjO-37" vertex="1">
                    <mxGeometry y="34" width="260" height="26" as="geometry"/>
                </mxCell>
                <mxCell id="55Z-7aIsJhUNVljRgmjO-47" value="&lt;&lt;&lt;Abstract&gt;&gt;&gt; Scene.ts" style="swimlane;fontStyle=1;align=center;verticalAlign=top;childLayout=stackLayout;horizontal=1;startSize=26;horizontalStack=0;resizeParent=1;resizeParentMax=0;resizeLast=0;collapsible=1;marginBottom=0;strokeColor=default;" parent="WIyWlLk6GJQsqaUBKTNV-1" vertex="1">
                    <mxGeometry x="450" y="46" width="490" height="168" as="geometry"/>
                </mxCell>
                <mxCell id="55Z-7aIsJhUNVljRgmjO-48" value="# maxX: number&#10;# maxY: number&#10;# mouse: Mouse" style="text;strokeColor=none;fillColor=none;align=left;verticalAlign=top;spacingLeft=4;spacingRight=4;overflow=hidden;rotatable=0;points=[[0,0.5],[1,0.5]];portConstraint=eastwest;" parent="55Z-7aIsJhUNVljRgmjO-47" vertex="1">
                    <mxGeometry y="26" width="490" height="54" as="geometry"/>
                </mxCell>
                <mxCell id="55Z-7aIsJhUNVljRgmjO-49" value="" style="line;strokeWidth=1;fillColor=none;align=left;verticalAlign=middle;spacingTop=-1;spacingLeft=3;spacingRight=3;rotatable=0;labelPosition=right;points=[];portConstraint=eastwest;strokeColor=inherit;" parent="55Z-7aIsJhUNVljRgmjO-47" vertex="1">
                    <mxGeometry y="80" width="490" height="8" as="geometry"/>
                </mxCell>
                <mxCell id="55Z-7aIsJhUNVljRgmjO-50" value="+ constructor(maxX: number, maxY: number)&#10;+ &lt;Abstract&gt; processInput(keyListener: keyListener, mouseListener: MouseListener): void&#10;+ &lt;Abstract&gt; update(elapsed: number): Scene&#10;+ &lt;Abstract&gt; render(canvas: HTMLCanvasElement): void" style="text;strokeColor=none;fillColor=none;align=left;verticalAlign=top;spacingLeft=4;spacingRight=4;overflow=hidden;rotatable=0;points=[[0,0.5],[1,0.5]];portConstraint=eastwest;" parent="55Z-7aIsJhUNVljRgmjO-47" vertex="1">
                    <mxGeometry y="88" width="490" height="80" as="geometry"/>
                </mxCell>
                <mxCell id="55Z-7aIsJhUNVljRgmjO-52" value="IntroScene.ts" style="swimlane;fontStyle=1;align=center;verticalAlign=top;childLayout=stackLayout;horizontal=1;startSize=26;horizontalStack=0;resizeParent=1;resizeParentMax=0;resizeLast=0;collapsible=1;marginBottom=0;strokeColor=default;" parent="WIyWlLk6GJQsqaUBKTNV-1" vertex="1">
                    <mxGeometry x="30" y="280" width="430" height="250" as="geometry"/>
                </mxCell>
                <mxCell id="55Z-7aIsJhUNVljRgmjO-53" value="- starting: boolean&#10;- isDisplayingInstrucrions: boolean&#10;- isDisplayingCredits: boolean&#10;- ball: HTMLImageElement&#10;- buttons: Button[]&#10;- instructions: HTMLImageElement&#10;- credits: HTMLImageElement&#10;- backgroundImage: HTMLImageElement&#10;- dutchTranslation: boolean;" style="text;strokeColor=none;fillColor=none;align=left;verticalAlign=top;spacingLeft=4;spacingRight=4;overflow=hidden;rotatable=0;points=[[0,0.5],[1,0.5]];portConstraint=eastwest;" parent="55Z-7aIsJhUNVljRgmjO-52" vertex="1">
                    <mxGeometry y="26" width="430" height="144" as="geometry"/>
                </mxCell>
                <mxCell id="55Z-7aIsJhUNVljRgmjO-54" value="" style="line;strokeWidth=1;fillColor=none;align=left;verticalAlign=middle;spacingTop=-1;spacingLeft=3;spacingRight=3;rotatable=0;labelPosition=right;points=[];portConstraint=eastwest;strokeColor=inherit;" parent="55Z-7aIsJhUNVljRgmjO-52" vertex="1">
                    <mxGeometry y="170" width="430" height="8" as="geometry"/>
                </mxCell>
                <mxCell id="55Z-7aIsJhUNVljRgmjO-55" value="+ constructor(maxX: number, maxY: number)&#10;+ processInput(keyListener: keyListener, mouseListener: MouseListener): void&#10;+ update(elapsed: number): Scene&#10;+ render(canvas: HTMLCanvasElement): void" style="text;strokeColor=none;fillColor=none;align=left;verticalAlign=top;spacingLeft=4;spacingRight=4;overflow=hidden;rotatable=0;points=[[0,0.5],[1,0.5]];portConstraint=eastwest;" parent="55Z-7aIsJhUNVljRgmjO-52" vertex="1">
                    <mxGeometry y="178" width="430" height="72" as="geometry"/>
                </mxCell>
                <mxCell id="55Z-7aIsJhUNVljRgmjO-56" value="GameScene.ts" style="swimlane;fontStyle=1;align=center;verticalAlign=top;childLayout=stackLayout;horizontal=1;startSize=26;horizontalStack=0;resizeParent=1;resizeParentMax=0;resizeLast=0;collapsible=1;marginBottom=0;strokeColor=default;" parent="WIyWlLk6GJQsqaUBKTNV-1" vertex="1">
                    <mxGeometry x="580" y="280" width="440" height="800" as="geometry"/>
                </mxCell>
                <mxCell id="55Z-7aIsJhUNVljRgmjO-57" value="- player: Player&#10;- isPushingNewPath: boolean&#10;- backgroundPaths: BackgroundPath[]&#10;- actionItems: ActionItem[]&#10;- lives: number&#10;- score: number&#10;- speed: number&#10;- timeToNextItem: number&#10;- timeToNextItemDiminished: number&#10;- heartImage: HTMLImageElement&#10;- timeToHigherSpeed: number&#10;- isJumping: boolean&#10;- isSliding: boolean&#10;- isGameOver: boolean&#10;- isDisplayingDescription: boolean&#10;- isTriggeringQuestion: boolean&#10;- descriptionImage: HTMLImageElement&#10;- descriptionImageNl: HTMLImageElement&#10;- isDisplayingQuestion: boolean&#10;- isDisplayingAnswerAndExplanation: boolean&#10;- isPlayerAnswering: boolean&#10;- isAnswerCorrect: boolean&#10;- popupQuestionBackground: HTMLImageElement&#10;- questions: Object[]&#10;- dumpQuestions: Object[]&#10;- currentQuestion: string&#10;- answers: string[]&#10;- correctAnswer: string&#10;- explanation: string&#10;- aButton: Button&#10;- bButton: Button&#10;- cButton: Button&#10;- dButton: Button&#10;- isFsellInTOHole: boolean&#10;- gameSounds; Map&lt;string, HTMLAudioElement&gt;&#10;- isMovingLeft: boolean&#10;- isMovingRight: boolean&#10;- movePlayerTo: boolean&#10;- isGamePaused: boolean&#10;- backgroundNumber: number&#10;- scoreForBackground: number&#10;- isDisplayingContinueTimeout: number&#10;- continueTimeout: number&#10;- level: number&#10;- dutchTranslation: boolean&#10;- newPosYForBackground: number&#10;- initialNewPosYForBackground: number&#10;- changingSongPerLevel: number" style="text;strokeColor=none;fillColor=none;align=left;verticalAlign=top;spacingLeft=4;spacingRight=4;overflow=hidden;rotatable=0;points=[[0,0.5],[1,0.5]];portConstraint=eastwest;" parent="55Z-7aIsJhUNVljRgmjO-56" vertex="1">
                    <mxGeometry y="26" width="440" height="684" as="geometry"/>
                </mxCell>
                <mxCell id="55Z-7aIsJhUNVljRgmjO-58" value="" style="line;strokeWidth=1;fillColor=none;align=left;verticalAlign=middle;spacingTop=-1;spacingLeft=3;spacingRight=3;rotatable=0;labelPosition=right;points=[];portConstraint=eastwest;strokeColor=inherit;" parent="55Z-7aIsJhUNVljRgmjO-56" vertex="1">
                    <mxGeometry y="710" width="440" height="8" as="geometry"/>
                </mxCell>
                <mxCell id="55Z-7aIsJhUNVljRgmjO-59" value="+ constructor(maxX: number, maxY: number, dutchTranslation: boolean)&#10;+ checkAnswer(button; Button): void&#10;+ processInput(keyListener: keyListener, mouseListener: MouseListener): void&#10;+ update(elapsed: number): Scene&#10;+ render(canvas: HTMLCanvasElement): void" style="text;strokeColor=none;fillColor=none;align=left;verticalAlign=top;spacingLeft=4;spacingRight=4;overflow=hidden;rotatable=0;points=[[0,0.5],[1,0.5]];portConstraint=eastwest;" parent="55Z-7aIsJhUNVljRgmjO-56" vertex="1">
                    <mxGeometry y="718" width="440" height="82" as="geometry"/>
                </mxCell>
                <mxCell id="55Z-7aIsJhUNVljRgmjO-60" value="EndScene.ts" style="swimlane;fontStyle=1;align=center;verticalAlign=top;childLayout=stackLayout;horizontal=1;startSize=26;horizontalStack=0;resizeParent=1;resizeParentMax=0;resizeLast=0;collapsible=1;marginBottom=0;strokeColor=default;" parent="WIyWlLk6GJQsqaUBKTNV-1" vertex="1">
                    <mxGeometry x="-140" y="590" width="600" height="260" as="geometry"/>
                </mxCell>
                <mxCell id="55Z-7aIsJhUNVljRgmjO-61" value="- goToMenu: boolean&#10;- playAgain: boolean&#10;- tryAgainButton: Button&#10;- menuButton: Button&#10;- deadBall: HTMLImageElement&#10;- finalScore: number&#10;- typeOfGameOver: boolean&#10;- background: HTMLImageElement&#10;- gameOverSound: HTMLAudioElement&#10;- dutchTranslation: boolean" style="text;strokeColor=none;fillColor=none;align=left;verticalAlign=top;spacingLeft=4;spacingRight=4;overflow=hidden;rotatable=0;points=[[0,0.5],[1,0.5]];portConstraint=eastwest;" parent="55Z-7aIsJhUNVljRgmjO-60" vertex="1">
                    <mxGeometry y="26" width="600" height="154" as="geometry"/>
                </mxCell>
                <mxCell id="55Z-7aIsJhUNVljRgmjO-62" value="" style="line;strokeWidth=1;fillColor=none;align=left;verticalAlign=middle;spacingTop=-1;spacingLeft=3;spacingRight=3;rotatable=0;labelPosition=right;points=[];portConstraint=eastwest;strokeColor=inherit;" parent="55Z-7aIsJhUNVljRgmjO-60" vertex="1">
                    <mxGeometry y="180" width="600" height="8" as="geometry"/>
                </mxCell>
                <mxCell id="55Z-7aIsJhUNVljRgmjO-63" value="+ constructor(maxX: number, maxY: number, score: number, fellInHole: boolean, dutchTranslation: boolean)&#10;+ processInput(keyListener: keyListener, mouseListener: MouseListener): void&#10;+ update(elapsed: number): Scene&#10;+ render(canvas: HTMLCanvasElement): void" style="text;strokeColor=none;fillColor=none;align=left;verticalAlign=top;spacingLeft=4;spacingRight=4;overflow=hidden;rotatable=0;points=[[0,0.5],[1,0.5]];portConstraint=eastwest;" parent="55Z-7aIsJhUNVljRgmjO-60" vertex="1">
                    <mxGeometry y="188" width="600" height="72" as="geometry"/>
                </mxCell>
                <mxCell id="L0KbJhoyA9vGIYzsONTl-0" value="" style="endArrow=diamondThin;endFill=1;endSize=24;html=1;rounded=0;exitX=-0.001;exitY=0.086;exitDx=0;exitDy=0;exitPerimeter=0;" parent="WIyWlLk6GJQsqaUBKTNV-1" source="55Z-7aIsJhUNVljRgmjO-47" edge="1">
                    <mxGeometry width="160" relative="1" as="geometry">
                        <mxPoint x="420" y="60" as="sourcePoint"/>
                        <mxPoint x="380" y="120.5" as="targetPoint"/>
                        <Array as="points">
                            <mxPoint x="420" y="60"/>
                            <mxPoint x="420" y="120"/>
                        </Array>
                    </mxGeometry>
                </mxCell>
                <mxCell id="L0KbJhoyA9vGIYzsONTl-1" value="" style="endArrow=block;endSize=16;endFill=0;html=1;rounded=0;entryX=0.49;entryY=1.018;entryDx=0;entryDy=0;entryPerimeter=0;exitX=1;exitY=0.043;exitDx=0;exitDy=0;exitPerimeter=0;" parent="WIyWlLk6GJQsqaUBKTNV-1" source="55Z-7aIsJhUNVljRgmjO-52" target="55Z-7aIsJhUNVljRgmjO-50" edge="1">
                    <mxGeometry width="160" relative="1" as="geometry">
                        <mxPoint x="520" y="290" as="sourcePoint"/>
                        <mxPoint x="770" y="510" as="targetPoint"/>
                        <Array as="points">
                            <mxPoint x="580" y="290"/>
                            <mxPoint x="520" y="290"/>
                            <mxPoint x="520" y="560"/>
                            <mxPoint x="520" y="260"/>
                            <mxPoint x="520" y="250"/>
                            <mxPoint x="690" y="250"/>
                        </Array>
                    </mxGeometry>
                </mxCell>
                <mxCell id="L0KbJhoyA9vGIYzsONTl-2" value="" style="endArrow=none;html=1;rounded=0;exitX=1;exitY=0.109;exitDx=0;exitDy=0;exitPerimeter=0;" parent="WIyWlLk6GJQsqaUBKTNV-1" source="55Z-7aIsJhUNVljRgmjO-60" edge="1">
                    <mxGeometry width="50" height="50" relative="1" as="geometry">
                        <mxPoint x="470" y="590" as="sourcePoint"/>
                        <mxPoint x="520" y="560" as="targetPoint"/>
                        <Array as="points">
                            <mxPoint x="520" y="620"/>
                        </Array>
                    </mxGeometry>
                </mxCell>
                <mxCell id="L0KbJhoyA9vGIYzsONTl-3" value="" style="endArrow=diamondThin;endFill=1;endSize=24;html=1;rounded=0;exitX=-0.004;exitY=0.085;exitDx=0;exitDy=0;exitPerimeter=0;" parent="WIyWlLk6GJQsqaUBKTNV-1" source="55Z-7aIsJhUNVljRgmjO-12" edge="1">
                    <mxGeometry width="160" relative="1" as="geometry">
                        <mxPoint x="910" y="490" as="sourcePoint"/>
                        <mxPoint x="1020" y="320" as="targetPoint"/>
                        <Array as="points">
                            <mxPoint x="1060" y="110"/>
                            <mxPoint x="1060" y="160"/>
                            <mxPoint x="1060" y="320"/>
                            <mxPoint x="1030" y="320"/>
                        </Array>
                    </mxGeometry>
                </mxCell>
                <mxCell id="L0KbJhoyA9vGIYzsONTl-4" value="" style="endArrow=diamondThin;endFill=1;endSize=24;html=1;rounded=0;exitX=0;exitY=0.1;exitDx=0;exitDy=0;exitPerimeter=0;" parent="WIyWlLk6GJQsqaUBKTNV-1" source="55Z-7aIsJhUNVljRgmjO-20" edge="1">
                    <mxGeometry width="160" relative="1" as="geometry">
                        <mxPoint x="1080" y="332" as="sourcePoint"/>
                        <mxPoint x="1020" y="332" as="targetPoint"/>
                        <Array as="points">
                            <mxPoint x="1070" y="355"/>
                            <mxPoint x="1070" y="332"/>
                        </Array>
                    </mxGeometry>
                </mxCell>
                <mxCell id="L0KbJhoyA9vGIYzsONTl-5" value="" style="endArrow=block;endSize=16;endFill=0;html=1;rounded=0;exitX=0.999;exitY=0.068;exitDx=0;exitDy=0;exitPerimeter=0;" parent="WIyWlLk6GJQsqaUBKTNV-1" source="55Z-7aIsJhUNVljRgmjO-15" edge="1">
                    <mxGeometry width="160" relative="1" as="geometry">
                        <mxPoint x="1360" y="290" as="sourcePoint"/>
                        <mxPoint x="1520" y="290" as="targetPoint"/>
                        <Array as="points">
                            <mxPoint x="1480" y="218"/>
                            <mxPoint x="1480" y="290"/>
                        </Array>
                    </mxGeometry>
                </mxCell>
                <mxCell id="L0KbJhoyA9vGIYzsONTl-6" value="" style="endArrow=none;html=1;rounded=0;" parent="WIyWlLk6GJQsqaUBKTNV-1" edge="1">
                    <mxGeometry width="50" height="50" relative="1" as="geometry">
                        <mxPoint x="1480" y="240" as="sourcePoint"/>
                        <mxPoint x="1480" y="80" as="targetPoint"/>
                        <Array as="points">
                            <mxPoint x="1480" y="80"/>
                        </Array>
                    </mxGeometry>
                </mxCell>
                <mxCell id="L0KbJhoyA9vGIYzsONTl-7" value="" style="endArrow=none;html=1;rounded=0;exitX=0.996;exitY=1;exitDx=0;exitDy=0;exitPerimeter=0;" parent="WIyWlLk6GJQsqaUBKTNV-1" edge="1">
                    <mxGeometry width="50" height="50" relative="1" as="geometry">
                        <mxPoint x="1388.88" y="405" as="sourcePoint"/>
                        <mxPoint x="1480" y="290" as="targetPoint"/>
                        <Array as="points">
                            <mxPoint x="1480" y="405"/>
                        </Array>
                    </mxGeometry>
                </mxCell>
                <mxCell id="L0KbJhoyA9vGIYzsONTl-8" value="" style="endArrow=block;endSize=16;endFill=0;html=1;rounded=0;entryX=0.5;entryY=1.081;entryDx=0;entryDy=0;entryPerimeter=0;" parent="WIyWlLk6GJQsqaUBKTNV-1" target="55Z-7aIsJhUNVljRgmjO-23" edge="1">
                    <mxGeometry width="160" relative="1" as="geometry">
                        <mxPoint x="1480" y="980" as="sourcePoint"/>
                        <mxPoint x="1550" y="550" as="targetPoint"/>
                        <Array as="points">
                            <mxPoint x="1480" y="540"/>
                            <mxPoint x="1250" y="540"/>
                        </Array>
                    </mxGeometry>
                </mxCell>
                <mxCell id="L0KbJhoyA9vGIYzsONTl-9" value="" style="endArrow=none;html=1;rounded=0;exitX=1.001;exitY=0.043;exitDx=0;exitDy=0;exitPerimeter=0;" parent="WIyWlLk6GJQsqaUBKTNV-1" source="55Z-7aIsJhUNVljRgmjO-39" edge="1">
                    <mxGeometry width="50" height="50" relative="1" as="geometry">
                        <mxPoint x="1390" y="765" as="sourcePoint"/>
                        <mxPoint x="1480" y="815" as="targetPoint"/>
                    </mxGeometry>
                </mxCell>
                <mxCell id="L0KbJhoyA9vGIYzsONTl-10" value="" style="endArrow=none;html=1;rounded=0;exitX=1.001;exitY=0.043;exitDx=0;exitDy=0;exitPerimeter=0;" parent="WIyWlLk6GJQsqaUBKTNV-1" edge="1">
                    <mxGeometry width="50" height="50" relative="1" as="geometry">
                        <mxPoint x="1370.0000000000002" y="739.8779999999999" as="sourcePoint"/>
                        <mxPoint x="1479.74" y="739.76" as="targetPoint"/>
                    </mxGeometry>
                </mxCell>
                <mxCell id="L0KbJhoyA9vGIYzsONTl-12" value="" style="endArrow=none;html=1;rounded=0;exitX=1.001;exitY=0.043;exitDx=0;exitDy=0;exitPerimeter=0;" parent="WIyWlLk6GJQsqaUBKTNV-1" edge="1">
                    <mxGeometry width="50" height="50" relative="1" as="geometry">
                        <mxPoint x="1370.0000000000002" y="664.8779999999999" as="sourcePoint"/>
                        <mxPoint x="1479.74" y="664.76" as="targetPoint"/>
                    </mxGeometry>
                </mxCell>
                <mxCell id="L0KbJhoyA9vGIYzsONTl-13" value="" style="endArrow=none;html=1;rounded=0;exitX=1.001;exitY=0.043;exitDx=0;exitDy=0;exitPerimeter=0;" parent="WIyWlLk6GJQsqaUBKTNV-1" edge="1">
                    <mxGeometry width="50" height="50" relative="1" as="geometry">
                        <mxPoint x="1370.0000000000002" y="594.8779999999999" as="sourcePoint"/>
                        <mxPoint x="1479.74" y="594.76" as="targetPoint"/>
                    </mxGeometry>
                </mxCell>
                <mxCell id="L0KbJhoyA9vGIYzsONTl-14" value="" style="endArrow=none;dashed=1;html=1;rounded=0;entryX=1;entryY=0.692;entryDx=0;entryDy=0;entryPerimeter=0;exitX=0.5;exitY=0;exitDx=0;exitDy=0;" parent="WIyWlLk6GJQsqaUBKTNV-1" source="55Z-7aIsJhUNVljRgmjO-20" target="55Z-7aIsJhUNVljRgmjO-15" edge="1">
                    <mxGeometry width="50" height="50" relative="1" as="geometry">
                        <mxPoint x="1220" y="380" as="sourcePoint"/>
                        <mxPoint x="1270" y="330" as="targetPoint"/>
                        <Array as="points">
                            <mxPoint x="1240" y="340"/>
                            <mxPoint x="1460" y="340"/>
                            <mxPoint x="1460" y="294"/>
                        </Array>
                    </mxGeometry>
                </mxCell>
                <mxCell id="0" value="Mouse.ts" style="swimlane;fontStyle=1;align=center;verticalAlign=top;childLayout=stackLayout;horizontal=1;startSize=26;horizontalStack=0;resizeParent=1;resizeParentMax=0;resizeLast=0;collapsible=1;marginBottom=0;" parent="WIyWlLk6GJQsqaUBKTNV-1" vertex="1">
                    <mxGeometry x="1315" y="-130" width="330" height="100" as="geometry"/>
                </mxCell>
                <mxCell id="2" value="" style="line;strokeWidth=1;fillColor=none;align=left;verticalAlign=middle;spacingTop=-1;spacingLeft=3;spacingRight=3;rotatable=0;labelPosition=right;points=[];portConstraint=eastwest;" parent="0" vertex="1">
                    <mxGeometry y="26" width="330" height="8" as="geometry"/>
                </mxCell>
                <mxCell id="3" value="+ constructor()&#10;+ processInput(mouseListener: MouseListener): void &#10;+ collidesWithButton (button: HTMLImageElement): boolean" style="text;strokeColor=none;fillColor=none;align=left;verticalAlign=top;spacingLeft=4;spacingRight=4;overflow=hidden;rotatable=0;points=[[0,0.5],[1,0.5]];portConstraint=eastwest;" parent="0" vertex="1">
                    <mxGeometry y="34" width="330" height="66" as="geometry"/>
                </mxCell>
                <mxCell id="4" value="" style="endArrow=diamondThin;endFill=1;endSize=24;html=1;entryX=1.002;entryY=0.907;entryDx=0;entryDy=0;entryPerimeter=0;exitX=0.004;exitY=0.155;exitDx=0;exitDy=0;exitPerimeter=0;" parent="WIyWlLk6GJQsqaUBKTNV-1" source="0" target="55Z-7aIsJhUNVljRgmjO-48" edge="1">
                    <mxGeometry width="160" relative="1" as="geometry">
                        <mxPoint x="1110" y="-90" as="sourcePoint"/>
                        <mxPoint x="1270" y="-90" as="targetPoint"/>
                        <Array as="points">
                            <mxPoint x="1000" y="-110"/>
                            <mxPoint x="1000" y="121"/>
                        </Array>
                    </mxGeometry>
                </mxCell>
                <mxCell id="5" value="Button.ts" style="swimlane;fontStyle=1;align=center;verticalAlign=top;childLayout=stackLayout;horizontal=1;startSize=26;horizontalStack=0;resizeParent=1;resizeParentMax=0;resizeLast=0;collapsible=1;marginBottom=0;" parent="WIyWlLk6GJQsqaUBKTNV-1" vertex="1">
                    <mxGeometry x="1100" y="1070" width="600" height="120" as="geometry"/>
                </mxCell>
                <mxCell id="6" value="- buttonDescription: string" style="text;strokeColor=none;fillColor=none;align=left;verticalAlign=top;spacingLeft=4;spacingRight=4;overflow=hidden;rotatable=0;points=[[0,0.5],[1,0.5]];portConstraint=eastwest;" parent="5" vertex="1">
                    <mxGeometry y="26" width="600" height="24" as="geometry"/>
                </mxCell>
                <mxCell id="7" value="" style="line;strokeWidth=1;fillColor=none;align=left;verticalAlign=middle;spacingTop=-1;spacingLeft=3;spacingRight=3;rotatable=0;labelPosition=right;points=[];portConstraint=eastwest;" parent="5" vertex="1">
                    <mxGeometry y="50" width="600" height="8" as="geometry"/>
                </mxCell>
                <mxCell id="8" value="+ constructor(imageUrl: string, buttonDescription: string, posX: number, posY: number)&#10;+ getCodeButton(): number&#10;+ getButtonDescription(): string" style="text;strokeColor=none;fillColor=none;align=left;verticalAlign=top;spacingLeft=4;spacingRight=4;overflow=hidden;rotatable=0;points=[[0,0.5],[1,0.5]];portConstraint=eastwest;" parent="5" vertex="1">
                    <mxGeometry y="58" width="600" height="62" as="geometry"/>
                </mxCell>
                <mxCell id="9" value="Extends" style="endArrow=block;endSize=16;endFill=0;html=1;exitX=0.458;exitY=-0.016;exitDx=0;exitDy=0;exitPerimeter=0;" parent="WIyWlLk6GJQsqaUBKTNV-1" source="5" edge="1">
                    <mxGeometry x="-0.2481" y="-2" width="160" relative="1" as="geometry">
                        <mxPoint x="1600" y="380" as="sourcePoint"/>
                        <mxPoint x="1744" y="390" as="targetPoint"/>
                        <mxPoint as="offset"/>
                        <Array as="points">
                            <mxPoint x="1375" y="1020"/>
                            <mxPoint x="1740" y="1020"/>
                        </Array>
                    </mxGeometry>
                </mxCell>
                <mxCell id="15" value="AdditionalHealth.ts" style="swimlane;fontStyle=1;align=center;verticalAlign=top;childLayout=stackLayout;horizontal=1;startSize=26;horizontalStack=0;resizeParent=1;resizeParentMax=0;resizeLast=0;collapsible=1;marginBottom=0;strokeColor=default;" parent="WIyWlLk6GJQsqaUBKTNV-1" vertex="1">
                    <mxGeometry x="1111" y="860" width="260" height="60" as="geometry"/>
                </mxCell>
                <mxCell id="16" value="" style="line;strokeWidth=1;fillColor=none;align=left;verticalAlign=middle;spacingTop=-1;spacingLeft=3;spacingRight=3;rotatable=0;labelPosition=right;points=[];portConstraint=eastwest;strokeColor=inherit;" parent="15" vertex="1">
                    <mxGeometry y="26" width="260" height="8" as="geometry"/>
                </mxCell>
                <mxCell id="17" value="+ constructor(startX: number, startY: number)" style="text;strokeColor=none;fillColor=none;align=left;verticalAlign=top;spacingLeft=4;spacingRight=4;overflow=hidden;rotatable=0;points=[[0,0.5],[1,0.5]];portConstraint=eastwest;" parent="15" vertex="1">
                    <mxGeometry y="34" width="260" height="26" as="geometry"/>
                </mxCell>
                <mxCell id="18" value="Snail.ts" style="swimlane;fontStyle=1;align=center;verticalAlign=top;childLayout=stackLayout;horizontal=1;startSize=26;horizontalStack=0;resizeParent=1;resizeParentMax=0;resizeLast=0;collapsible=1;marginBottom=0;strokeColor=default;" parent="WIyWlLk6GJQsqaUBKTNV-1" vertex="1">
                    <mxGeometry x="1110" y="940" width="260" height="60" as="geometry"/>
                </mxCell>
                <mxCell id="19" value="" style="line;strokeWidth=1;fillColor=none;align=left;verticalAlign=middle;spacingTop=-1;spacingLeft=3;spacingRight=3;rotatable=0;labelPosition=right;points=[];portConstraint=eastwest;strokeColor=inherit;" parent="18" vertex="1">
                    <mxGeometry y="26" width="260" height="8" as="geometry"/>
                </mxCell>
                <mxCell id="20" value="+ constructor(startX: number, startY: number)" style="text;strokeColor=none;fillColor=none;align=left;verticalAlign=top;spacingLeft=4;spacingRight=4;overflow=hidden;rotatable=0;points=[[0,0.5],[1,0.5]];portConstraint=eastwest;" parent="18" vertex="1">
                    <mxGeometry y="34" width="260" height="26" as="geometry"/>
                </mxCell>
                <mxCell id="21" value="" style="endArrow=none;html=1;rounded=0;exitX=1.001;exitY=0.043;exitDx=0;exitDy=0;exitPerimeter=0;" parent="WIyWlLk6GJQsqaUBKTNV-1" edge="1">
                    <mxGeometry width="50" height="50" relative="1" as="geometry">
                        <mxPoint x="1371.0000000000002" y="889.6179999999999" as="sourcePoint"/>
                        <mxPoint x="1480.74" y="889.5" as="targetPoint"/>
                    </mxGeometry>
                </mxCell>
                <mxCell id="22" value="" style="endArrow=none;html=1;rounded=0;exitX=1.001;exitY=0.043;exitDx=0;exitDy=0;exitPerimeter=0;" parent="WIyWlLk6GJQsqaUBKTNV-1" edge="1">
                    <mxGeometry width="50" height="50" relative="1" as="geometry">
                        <mxPoint x="1371.0000000000002" y="980.1179999999999" as="sourcePoint"/>
                        <mxPoint x="1480.74" y="980" as="targetPoint"/>
                    </mxGeometry>
                </mxCell>
                <mxCell id="27" value="Extends" style="endArrow=block;endSize=16;endFill=0;html=1;exitX=1;exitY=0.5;exitDx=0;exitDy=0;" parent="WIyWlLk6GJQsqaUBKTNV-1" source="3" edge="1">
                    <mxGeometry width="160" relative="1" as="geometry">
                        <mxPoint x="1720" y="-230" as="sourcePoint"/>
                        <mxPoint x="1720" y="200" as="targetPoint"/>
                        <Array as="points">
                            <mxPoint x="1720" y="-60"/>
                        </Array>
                    </mxGeometry>
                </mxCell>
                <mxCell id="28" value="Questions.ts" style="swimlane;fontStyle=1;align=center;verticalAlign=top;childLayout=stackLayout;horizontal=1;startSize=26;horizontalStack=0;resizeParent=1;resizeParentMax=0;resizeLast=0;collapsible=1;marginBottom=0;" parent="WIyWlLk6GJQsqaUBKTNV-1" vertex="1">
                    <mxGeometry x="860" y="1100" width="160" height="78" as="geometry"/>
                </mxCell>
                <mxCell id="29" value="+ questions: Object[]&#10;+ dumpQuestions: Object[]" style="text;strokeColor=none;fillColor=none;align=left;verticalAlign=top;spacingLeft=4;spacingRight=4;overflow=hidden;rotatable=0;points=[[0,0.5],[1,0.5]];portConstraint=eastwest;fontStyle=4" parent="28" vertex="1">
                    <mxGeometry y="26" width="160" height="44" as="geometry"/>
                </mxCell>
                <mxCell id="30" value="" style="line;strokeWidth=1;fillColor=none;align=left;verticalAlign=middle;spacingTop=-1;spacingLeft=3;spacingRight=3;rotatable=0;labelPosition=right;points=[];portConstraint=eastwest;strokeColor=inherit;" parent="28" vertex="1">
                    <mxGeometry y="70" width="160" height="8" as="geometry"/>
                </mxCell>
                <mxCell id="31" value="" style="endArrow=none;dashed=1;html=1;entryX=1.011;entryY=0.771;entryDx=0;entryDy=0;entryPerimeter=0;" edge="1" parent="WIyWlLk6GJQsqaUBKTNV-1" target="3">
                    <mxGeometry width="50" height="50" relative="1" as="geometry">
                        <mxPoint x="1700" y="1090" as="sourcePoint"/>
                        <mxPoint x="1850" y="70" as="targetPoint"/>
                        <Array as="points">
                            <mxPoint x="1960" y="1090"/>
                            <mxPoint x="1960" y="-40"/>
                        </Array>
                    </mxGeometry>
                </mxCell>
            </root>
        </mxGraphModel>
    </diagram>
</mxfile>